<?xml version="1.0" encoding="UTF-8"?>
<svg id="Layer_1" xmlns="http://www.w3.org/2000/svg" xmlns:xlink="http://www.w3.org/1999/xlink" version="1.1" viewBox="0 0 1157.7717 454.4557">
  <!-- Generator: Adobe Illustrator 29.6.0, SVG Export Plug-In . SVG Version: 2.1.1 Build 207)  -->
  <defs>
    <style>
      .st0 {
        fill: url(#linear-gradient);
      }
    </style>
    <linearGradient id="linear-gradient" x1="47.7258" y1="221.344" x2="1141.4461" y2="221.344" gradientUnits="userSpaceOnUse">
      <stop offset="0" stop-color="#0068f8"/>
      <stop offset=".0014" stop-color="#0168f6"/>
      <stop offset=".0888" stop-color="#4374b6"/>
      <stop offset=".1746" stop-color="#7c7f7e"/>
      <stop offset=".2568" stop-color="#ab8851"/>
      <stop offset=".3346" stop-color="#cf8f2e"/>
      <stop offset=".4069" stop-color="#e99314"/>
      <stop offset=".4717" stop-color="#f99605"/>
      <stop offset=".5227" stop-color="#ff9800"/>
      <stop offset="1" stop-color="#ed1c24"/>
    </linearGradient>
  </defs>
  <path class="st0" d="M1141.3794,235.1339c-.52-4.18-6.26-4.94-6.26-4.94-5.46-.28-10.9-.66-16.3101-1.15-39.7999-5.21-77.04-22.09-102.3799-55.54-25.6201-33.81-37.6101-78.98-82.49-92.6-53.5901-16.27-103.5701,17.46-152.6001,35.71-30.1899-10-61.05-17.35-92.71-19.21-23.6799-13.5-47.26-27.23-71.6101-39.47-40.73-20.46-88.7699-37.8-128.8499-6.54-5.01,3.9-9.61,8.26-14.14,12.7-17.84-.5601-35.77,1.17-52.54,7.29-11.19,4.08-21.51,9.97-30.66,17.59-15.93,13.27-30.95,26.9-48.27,38.4901-37.03,24.8-77.83,43.75-119.58,59.12-49.96,18.39-101.17,30.94-153.25,40.88-5.19.92-10.35,2.03-15.55,2.89-1.16.19-2.32.38-3.49.56-1.98.27-2.88,1.58-2.96,3.07-.02.3.05.62.09.93,0,.05.0099.1.0099.15,0,.04-.02.07-.0099.11v.03c-.01,1.69.92,3.31,2.7,3.83.29.09.58.16.91.19.13.01.22.07.36.07,21.63.05,42.99,1.59,64.16,4.12,30.5,5.2401,59.69,16.1801,82.44,37.4901,13.24,12.4,24.1299,27.2599,39.8,36.8799,20.19,12.38,44.99,15.66,68.28,15,29.33-.83,57.88-8.2,86.37-15.74,29.74,8.79,59.88,16.23,90.4,20.4,6.97,3.26,13.95,6.52,20.88,9.86,29.3201,14.13,58.29,29.15,88.25,41.91,41.14,17.51,88.5701,31.32,128.2,2.7,13.51-9.75,25.21-21.56,39.1301-30.9,18.23-12.24,37.72-22.55,57.6299-31.75,44.14-20.39,90.6801-35.53,137.5-48.42,59.6899-16.4301,120.6201-29.39,181.8701-38.76,2.5898-.4,5.2-2.76,4.6799-6.95ZM807.7494,115.334c29.51-12.38,57.5-27.94,90.23-30,25.4501-1.6,50.26,5.97,67.75,25.06,14.5,15.82,23.13,36.13,34.53,54.1,15.66,24.69,36.62,43.12,60.99,55.6-56.9501-12.3101-111.8199-33.86-165.7201-57.1-33.24-14.34-67.1599-29.8-101.95-42.18,4.74-1.79,9.5-3.52,14.17-5.48ZM870.5094,161.0739c52.38,22.62,105.1901,45.1,160.0399,60.09-35.2-5.17-70.1199-12.24-104.71-20.81-36.4399-9.89-72.33-22.03-107.3201-36.96-21.3599-9.12-42.2899-19.14-62.96-29.69,2.25-.69,4.54-1.28,6.79-1.99,6.3301-1.9901,12.62-4.13,18.89-6.33,30.52,10.29,60.33,23.19,89.27,35.69ZM788.6794,159.014c-18-6.26-35.9301-12.72-53.8301-19.27,3.1001-.86,6.1799-1.8,9.28-2.7,14.6899,7.63,29.51,15.01,44.55,21.97ZM768.0293,121.1339c-7.5798,2.5-15.1899,4.92-22.8398,7.18-13.0901-6.83-26.1101-13.8-39.01-20.99,20.8999,2.63,41.52,7.56,61.8499,13.81ZM686.3694,105.6139c15.6599,8.85,31.3999,17.55,47.29,25.98-4.04,1.1299-8.0901,2.21-12.1401,3.29-25.6199-9.41-51.24-18.83-76.98-27.93,1.03-.13,2.04-.33,3.0601-.44,13.01-1.41,25.9299-1.59,38.77-.9ZM707.8794,138.5539c-21.9399,5.53-44.05,10.41-66.16,14.98-71.85,14.8701-144.43,26.13-217.1,36.09-10.98,1.51-21.98,2.84-32.97,4.29,5.57-1.38,11.15-2.7,16.69-4.16,42.21-11.07,83.87-24.56,123.88-42.04,19.6-8.56,38.2101-19.38,58.16-27.09,12.1899-4.71,24.8101-8.34,37.62-10.94,26.75,9.25,53.3199,19.04,79.88,28.87ZM533.1594,42.014c23.01-1.48,45.7,7.08,66.25,16.53,24.6799,11.35,48.27,24.97,71.84,38.47-14.41.12-28.6801,1.58-42.7001,4.3-11.03-3.82-22.09-7.56-33.1899-11.18-31.63-10.32-63.9-19.71-96.98-24.04-4.11-.54-8.28-.96-12.45-1.3101,13.38-12.11,27.91-21.53,47.23-22.77ZM313.9994,154.464c19.05-10.55,37.43-22.35,54.65-35.7,13.03-10.11,24.35-22.8,38.46-31.43,17.95-10.98,38.26-15.34,59.27-15.75-4.73,4.69-9.49,9.35-14.64,13.59-17.84,14.66-37.48,27.1-57.67,38.23-39.69,21.86-82,38.68-124.92,53.1299,15.23-6.79,30.27-13.99,44.85-22.0699ZM222.1493,200.0439c47.39-13.83,94.2401-30.11,139.05-50.88,41.29-19.13,82.5-42.36,114.8-74.9.85-.85,1.72-1.68,2.57-2.52,32.3701,1.57,65.6301,11.25,93.92,19.81,13.75,4.15,27.4,8.62,41.02,13.21-17.25,4.51-34.05,10.85-50.11,18.98-39.0601,19.78-79.6901,35.46-121.61,48.07-48.55,14.6-98.16,25.62-148.18,34.2-52.86,6.12-105.79,11.69-158.74,16.86,29.35-6.75,58.5-14.44,87.28-22.83ZM343.4394,320.3839c-25.6,4.82-52.94,6.77-78.35-.12-20.8-5.64-35-18.16-49.37-33.47-13.35-14.23-27.91-25.81-45.09-34.44,50.36,10.17,99.82,25.13,148.98,41.3,18.96,6.23,38.09,12.61,57.38,18.6-11.1,3.05-22.22,5.99-33.55,8.13ZM391.9894,308.1239c-15.17-4.51-30.23-9.32-45.12-14.18-48.64-15.85-97.3-31.8-146.86-43.72,64.38,9.4,127.79,24.91,189.23,47.52,5.78,2.12,11.49,4.42,17.23,6.65-4.85,1.18-9.67,2.42-14.48,3.73ZM259.1593,252.154c36.12,4.19,72.16,9.2,108.08,14.96,40.49,6.5,80.79,14.01,121.09,21.55-11.11,1.77-22.21,3.62-33.28,5.63-11.45,2.08-22.85,4.4-34.22,6.88-.7-.28-1.3799-.59-2.08-.86-51.84-20.76-105.22-36.76-159.59-48.16ZM408.6093,312.894c3.98-1.03,7.97-2,11.96-2.98,10.94,4.45,21.8,9.1,32.61,13.87-14.95-3.08-29.82-6.78-44.57-10.89ZM484.9894,329.2539c-16.76-7.81-33.64-15.33-50.7-22.47,2.74-.6,5.47-1.25,8.22-1.79,23.31-4.55,46.75-8.38,70.2599-11.81,35.6001,6.64,71.2201,13.21,106.9901,18.97,5.12.83,10.25,1.6,15.39,2.3799-18.01,6.17-36.1901,11.6801-55.14,14.71-31.86,5.1-63.6,4.3-95.02.01ZM817.4194,264.8139c-40.99,7.61-81.75,16.8-121.67,28.86-14.84,4.48-29.39,9.8-43.9601,15.02-2.5-.35-5.01-.66-7.5-1.03-35.46-5.18-70.74-11.5-105.98-18.04,12.9301-1.73,25.8601-3.39,38.8-4.97,71.87-8.7401,143.99-15.4,216.15-21.31,20.48-1.6801,40.97-3.2401,61.46-4.79-12.4501,2.02-24.91,3.96-37.2999,6.26ZM1006.7893,248.0339c4.04-.2599,8.0901-.53,12.1301-.78-38.1001,6.08-76.0601,13.47-113.3701,23.34-18.3999,4.87-36.6599,10.34-54.5599,16.83-14.7201,5.34-28.65,12.46-43.24,18.04-22.13,8.46-46.27,10.43-69.77,10.42-23.0399-.01-46.0599-2.01-68.9501-4.86,37.6101-13.02,76.24-23,115.1501-31.25,73.3599-15.55,147.9299-25.16,222.6099-31.7401ZM989.7594,263.2339c-46.91,11.59-93.4701,25.2-138.51,42.79-40.4,15.77-80.83,34.56-114.8099,61.92-10.2301,8.23-19.2101,17.48-30.9301,23.69-8.85,4.69-18.6,7.67-28.5699,8.65-22.5901,2.22-45.1301-4.45-66.02-12.38-28.8801-10.95-56.47-25.2-84.1901-38.74-6.26-3.06-12.5399-6.0699-18.8199-9.08,14.0499,1.03,28.1799,1.29,42.3899.52,19.4501-1.05,38.8201-3.96,57.6901-8.77,15.14-3.86,29.64-9.4,44.22-14.82,21.2401,2.97,42.5699,5.39,63.9701,6.5,25.3799,1.31,51.3799.99,76.25-4.82,11.1799-2.61,21.4099-6.86,31.8099-11.61,16.6901-7.62,34.01-13.84,51.51-19.34,37.75-11.88,76.5299-20.44,115.4401-27.49,12.75-2.31,25.5199-4.42,38.3199-6.4-13.3,2.9901-26.55,6.12-39.75,9.38ZM1048.1494,236.344c-14.0901,1.02-28.17,2.27-42.26,3.5099-60.27,3.83-120.51,7.98-180.72,12.7-75.51,5.92-151,12.6-226.25,21.29-28.6801,3.3199-57.3401,6.95-85.9301,11.11-37.88-7.14-75.74-14.4-113.73-20.84-85.5-14.49-171.65-25.7-258.25-30.47,8.24-.74,16.47-1.5,24.69-2.31,42.96-4.25,85.89-9.82,128.5-17.13,31.91-3.7,63.81-7.55,95.67-11.71,76.72-10,153.36-21.29,229.3301-36.07,34.1799-6.65,68.3398-14,102.0399-22.92,30.9301,11.43,61.9,22.76,93.2101,33.06,37.3398,12.3,75.1499,23.41,113.3599,32.78,46.3601,12.46,93.71,21.12,141.72,25.64-7.1199.47-14.26.85-21.3799,1.36Z"/>
</svg>